<svg width="28" height="58" viewBox="0 0 28 58" fill="none" xmlns="http://www.w3.org/2000/svg">
<path d="M16.7961 47.0343C14.5331 50.5059 13.7359 53.5146 15.716 57.1405L13.3116 52.7431C11.3315 49.1044 11.4986 44.6813 13.7616 41.2096L26.0666 22.3086C26.0794 22.3343 26.0794 22.3472 26.0923 22.3729C27.6738 26.4617 27.1852 31.0648 24.7936 34.7293L16.7961 47.0343Z" fill="black"/>
<path d="M11.0361 38.5221L22.5824 21.8455L23.4568 19.7882C24.4854 15.7637 23.8039 11.4435 21.4895 7.88187L20.7695 6.82752L16.5392 0L2.18987 22.0512C-0.445988 26.0886 -0.638856 31.2703 1.67556 35.5005L4.47857 40.6308C2.16416 36.3877 3.10278 32.8775 5.73864 28.8273L19.3423 7.9333C19.4194 8.1776 19.4837 8.43475 19.5608 8.69191L19.5737 8.6662C19.5737 8.67905 19.5866 8.69191 19.5866 8.70477C20.2552 10.942 19.8823 13.3593 18.6094 15.3137L8.7731 30.4346C5.7515 35.0634 5.52006 40.978 8.16878 45.8383L9.8403 48.9113C8.59309 45.4911 9.0174 41.6337 11.0361 38.5221Z" fill="black"/>
</svg>
