<svg width="40" height="39" viewBox="0 0 40 39" fill="none" xmlns="http://www.w3.org/2000/svg">
<circle cx="20.2034" cy="19.5" r="18.7161" stroke="white" stroke-width="1.5678"/>
<path d="M20.2031 25.8196C18.1267 25.8196 14.4253 25.639 12.8906 25.2779C12.2586 25.0973 11.8072 24.6459 11.6267 24.014C11.3558 23.0209 11.1753 20.9446 11.1753 19.5001C11.1753 18.0557 11.3558 15.9793 11.6267 14.9862C11.8072 14.3543 12.2586 13.9029 12.8906 13.7223C14.4253 13.3612 18.1267 13.1807 20.2031 13.1807C22.2795 13.1807 25.9808 13.3612 27.5156 13.7223C28.1475 13.9029 28.5989 14.3543 28.7795 14.9862C29.0503 15.9793 29.2308 18.0557 29.2308 19.5001C29.2308 20.9446 29.0503 23.0209 28.7795 24.014C28.5989 24.6459 28.1475 25.0973 27.5156 25.2779C25.9808 25.639 22.2795 25.8196 20.2031 25.8196Z" fill="white" stroke="white" stroke-width="2.02507" stroke-linecap="round" stroke-linejoin="round"/>
<path d="M18.3979 22.2087L22.9118 19.5003L18.3979 16.792V22.2087Z" fill="#283229"/>
</svg>
