<svg width="40" height="39" viewBox="0 0 40 39" fill="none" xmlns="http://www.w3.org/2000/svg">
<circle cx="20.3899" cy="19.5" r="18.7161" stroke="white" stroke-width="1.5678"/>
<g clip-path="url(#clip0_6304_326)">
<path d="M24.1598 12.7734H17.1633C15.2313 12.7734 13.665 14.3397 13.665 16.2717V23.2682C13.665 25.2003 15.2313 26.7665 17.1633 26.7665H24.1598C26.0919 26.7665 27.6581 25.2003 27.6581 23.2682V16.2717C27.6581 14.3397 26.0919 12.7734 24.1598 12.7734Z" fill="white" stroke="white" stroke-width="1.60318" stroke-linecap="round" stroke-linejoin="round"/>
<path d="M23.4603 19.3295C23.5466 19.9118 23.4472 20.5065 23.176 21.029C22.9049 21.5515 22.476 21.9752 21.9502 22.2398C21.4243 22.5045 20.8285 22.5966 20.2473 22.5031C19.6661 22.4096 19.1292 22.1352 18.713 21.7189C18.2968 21.3027 18.0224 20.7658 17.9289 20.1846C17.8353 19.6035 17.9275 19.0076 18.1921 18.4818C18.4568 17.956 18.8805 17.527 19.403 17.2559C19.9255 16.9848 20.5202 16.8853 21.1024 16.9717C21.6964 17.0598 22.2463 17.3365 22.6708 17.7611C23.0954 18.1857 23.3722 18.7356 23.4603 19.3295Z" stroke="#283229" stroke-width="1.60318" stroke-linecap="round" stroke-linejoin="round"/>
<circle cx="24.1958" cy="16.2358" r="0.441886" fill="#283229"/>
</g>
<defs>
<clipPath id="clip0_6304_326">
<rect width="16.7917" height="16.7917" fill="white" transform="translate(12.2651 11.375)"/>
</clipPath>
</defs>
</svg>
