<svg width="40" height="39" viewBox="0 0 40 39" fill="none" xmlns="http://www.w3.org/2000/svg">
<circle cx="19.7966" cy="19.5" r="18.7161" stroke="white" stroke-width="1.5678"/>
<path d="M26.224 12.2783H13.3684C13.1577 12.2783 12.9556 12.362 12.8067 12.511C12.6577 12.66 12.574 12.8621 12.574 13.0728V25.9283C12.574 26.0326 12.5945 26.136 12.6344 26.2323C12.6744 26.3287 12.7329 26.4163 12.8067 26.4901C12.8804 26.5638 12.968 26.6224 13.0644 26.6623C13.1608 26.7022 13.2641 26.7228 13.3684 26.7228H20.2873V21.1255H18.4095V18.9589H20.2873V17.3339C20.2484 16.9524 20.2934 16.567 20.4193 16.2047C20.5451 15.8424 20.7486 15.5121 21.0156 15.2368C21.2826 14.9616 21.6066 14.7481 21.9649 14.6113C22.3232 14.4745 22.707 14.4177 23.0895 14.445C23.6517 14.4415 24.2135 14.4705 24.7723 14.5317V16.4817H23.624C22.714 16.4817 22.5406 16.915 22.5406 17.5433V18.9372H24.7073L24.4256 21.1039H22.5406V26.7228H26.224C26.3283 26.7228 26.4316 26.7022 26.528 26.6623C26.6244 26.6224 26.712 26.5638 26.7857 26.4901C26.8595 26.4163 26.918 26.3287 26.9579 26.2323C26.9979 26.136 27.0184 26.0326 27.0184 25.9283V13.0728C27.0184 12.9684 26.9979 12.8651 26.9579 12.7687C26.918 12.6724 26.8595 12.5848 26.7857 12.511C26.712 12.4372 26.6244 12.3787 26.528 12.3388C26.4316 12.2989 26.3283 12.2783 26.224 12.2783Z" fill="white"/>
</svg>
