<svg width="26" height="25" viewBox="0 0 26 25" fill="none" xmlns="http://www.w3.org/2000/svg">
<g clip-path="url(#clip0_2916_454619)">
<path d="M22.375 10.1562C22.375 17.1875 13 24.2188 13 24.2188C13 24.2188 3.625 17.1875 3.625 10.1562C3.625 7.66985 4.61272 5.28528 6.37087 3.52712C8.12903 1.76897 10.5136 0.78125 13 0.78125C15.4864 0.78125 17.871 1.76897 19.6291 3.52712C21.3873 5.28528 22.375 7.66985 22.375 10.1562V10.1562Z" stroke="#B68742" stroke-width="2" stroke-linecap="round" stroke-linejoin="round"/>
<path d="M15.5137 10.1562C15.5137 11.5456 14.3874 12.6719 12.998 12.6719C11.6087 12.6719 10.4824 11.5456 10.4824 10.1562C10.4824 8.76691 11.6087 7.64062 12.998 7.64062C14.3874 7.64062 15.5137 8.76691 15.5137 10.1562Z" stroke="#B68742" stroke-width="2"/>
</g>
<defs>
<clipPath id="clip0_2916_454619">
<rect width="25" height="25" fill="white" transform="translate(0.5)"/>
</clipPath>
</defs>
</svg>
