<svg width="17" height="35" viewBox="0 0 17 35" fill="none" xmlns="http://www.w3.org/2000/svg">
<path d="M10.5059 28.8098C9.1197 30.9362 8.6314 32.7792 9.84428 35.0002L8.3715 32.3066C7.15862 30.0778 7.26101 27.3685 8.64716 25.242L16.1843 13.6646C16.1922 13.6803 16.1922 13.6882 16.2001 13.7039C17.1688 16.2084 16.8695 19.028 15.4046 21.2726L10.5059 28.8098Z" fill="#DB6E40"/>
<path d="M6.9775 23.596L14.05 13.381L14.5855 12.1209C15.2156 9.65576 14.7982 7.00949 13.3805 4.82788L12.9395 4.18206L10.3484 0L1.55893 13.507C-0.055611 15.9801 -0.173748 19.154 1.2439 21.7452L2.96083 24.8876C1.54318 22.2886 2.11812 20.1385 3.73266 17.6576L12.0653 4.85938C12.1125 5.00903 12.1519 5.16654 12.1992 5.32406L12.2071 5.30831C12.2071 5.31618 12.2149 5.32406 12.2149 5.33193C12.6245 6.70233 12.3961 8.18298 11.6164 9.38011L5.59136 18.6421C3.74054 21.4774 3.59877 25.1003 5.22119 28.0773L6.24505 29.9596C5.48109 27.8647 5.741 25.5019 6.9775 23.596Z" fill="#DB6E40"/>
</svg>
